HIERARCHY
ROOT pelvis
{
  OFFSET 0 100 0
  CHANNELS 6 Xposition Yposition Zposition Zrotation Xrotation Yrotation
  JOINT pelvis_right_femur
  {
    OFFSET -10.78128 -3.44521 -0.5502486
    CHANNELS 3 Zrotation Xrotation Yrotation
    JOINT right_femur_tibia
    {
      OFFSET -0.8047443 -44.0398 -0.1307829
      CHANNELS 3 Zrotation Xrotation Yrotation
      JOINT right_tibia_foot
      {
        OFFSET 3.006224 -47.83518 -5
        CHANNELS 3 Zrotation Xrotation Yrotation
        End Site
        {
          OFFSET 0 -5 15
        }
      }
    }
  }
  JOINT pelvis_left_femur
  {
    OFFSET 10.78128 -3.44521 -0.5502486
    CHANNELS 3 Zrotation Xrotation Yrotation
    JOINT left_femur_tibia
    {
      OFFSET 0.8047443 -44.0398 -0.1307829
      CHANNELS 3 Zrotation Xrotation Yrotation
      JOINT left_tibia_foot
      {
        OFFSET -4.370144 -48.10324 -4.275266
        CHANNELS 3 Zrotation Xrotation Yrotation
        End Site
        {
          OFFSET 0 -5 15
        }
      }
    }
  }
  JOINT pelvis_spine1
  {
    OFFSET 0 6.468898 -3.129235
    CHANNELS 3 Zrotation Xrotation Yrotation
    JOINT spine1
    {
      OFFSET 0 23.15396 4.99043
      CHANNELS 3 Zrotation Xrotation Yrotation
      JOINT spine2
      {
        OFFSET 0 20.79997 -5.064912
        CHANNELS 3 Zrotation Xrotation Yrotation
        JOINT neck
        {
          OFFSET 0 14.38658 9.616178
          CHANNELS 3 Zrotation Xrotation Yrotation
          End Site
          {
            OFFSET 0 20 0
          }
        }
      }
      JOINT right_manubrium
      {
        OFFSET -5.722621 16.35077 3.967754
        CHANNELS 3 Zrotation Xrotation Yrotation
        JOINT right_clavicle
        {
          OFFSET -13.16364 1.694482 -4.693211
          CHANNELS 3 Zrotation Xrotation Yrotation
          JOINT right_humerus
          {
            OFFSET -28.5034 -0.3100689 -2.792744
            CHANNELS 3 Zrotation Xrotation Yrotation
            JOINT right_radius
            {
              OFFSET -25.15693 0.02248979 -1.271978
              CHANNELS 3 Zrotation Xrotation Yrotation
              End Site
              {
                OFFSET -15 0 0
              }
            }
          }
        }
      }
      JOINT left_manubrium
      {
        OFFSET 5.722621 16.35077 3.967754
        CHANNELS 3 Zrotation Xrotation Yrotation
        JOINT left_clavicle
        {
          OFFSET 13.16364 1.694482 -4.693211
          CHANNELS 3 Zrotation Xrotation Yrotation
          JOINT left_humerus
          {
            OFFSET 29.39168 -1.063119 -2.237045
            CHANNELS 3 Zrotation Xrotation Yrotation
            JOINT left_radius
            {
              OFFSET 24.59957 -0.9528479 0.9047498
              CHANNELS 3 Zrotation Xrotation Yrotation
              End Site
              {
                OFFSET 15 -0 -0
              }
            }
          }
        }
      }
    }
  }
}
MOTION
Frames: 21
Frame Time: 0.0416666666667
0 103.5113 0 2.861976 -0.136482 0.1330737 2.099179 -15.47028 10.40939 -0 38.80824 -0 -3.240926 -18.28204 -2.602708 -9.461759 8.549461 -22.59343 -0 5.222006 -0 20.80995 -8.429974 29.43097 -3.452033 -3.484732 5.154811 2.433924 10.76774 -7.219187 2.213539 21.65463 5.78581 2.46911 -25.6284 9.970697 6.297688 -21.20881 11.35679 86.50742 37.99008 -18.37272 -0 0 16.2071 -6.690858 8.460335 4.893606 4.790007 -18.87195 -3.184732 -91.99077 22.78095 20.53714 0 0 -16.28894 16.04735 14.51161 -1.888755
0.397146 104.3144 1.544788 2.302692 0.5691245 0.2160602 3.381929 -17.64336 10.96027 -0 38.32957 -0 -3.766738 -16.87713 -2.281141 -9.12291 8.323615 -22.34707 -0 5.325454 -0 21.297 -9.309307 29.87286 -3.320549 -3.206078 4.985964 2.73802 10.45871 -7.528171 2.035545 21.27424 6.224035 2.649233 -26.24002 10.09752 6.206296 -21.00111 11.63538 86.65957 38.03152 -18.57786 -0 0 16.00215 -6.648948 8.573662 5.05398 4.794998 -18.90956 -2.690556 -91.66735 22.32129 20.09156 0 0 -16.79116 15.93048 14.1026 -2.047928
0.668387 103.8285 5.242825 -0.1650555 0.09301633 0.3850324 3.036887 -32.95467 0.9272172 -0 17.19175 -0 -6.94748 -2.228091 -2.163563 -5.69256 16.1861 -14.68833 -0 5.870343 -0 5.043767 -21.85037 17.46726 -1.070647 -0.7451586 3.903533 3.316761 10.33972 -8.233703 1.326618 19.76149 6.790094 4.124296 -25.87067 8.046277 5.094849 -16.9938 11.24219 87.6458 33.8773 -21.15802 -0 0 9.665696 -11.8795 10.97353 6.967606 6.151847 -20.98713 -2.164596 -89.83574 21.32495 16.79402 0 0 -19.35499 10.15013 10.40718 2.546183
0.9423865 103.7029 8.243936 -0.4787794 1.030828 0.4483171 4.686218 -31.24785 4.219827 -0 21.98666 -0 -6.935267 -5.398336 -2.248601 -5.688135 14.47763 -17.40643 -0 5.446485 -0 5.525628 -21.94768 20.07353 -0.5428763 -0.6341733 3.874498 4.079996 9.760738 -9.078962 1.194892 19.06243 6.443994 3.755366 -26.87834 7.617543 4.925473 -16.52219 11.41948 88.03551 33.30316 -22.76715 -0 0 8.817008 -10.75869 10.80715 6.606509 5.937113 -21.27027 -2.003047 -89.55017 21.75605 16.83377 0 0 -21.2655 8.442716 10.07121 4.591101
1.04191 102.9126 13.06462 0.01736808 0.323285 0.8376944 2.523784 -35.01201 -0.03205879 -0 10.8418 -0 -5.067141 0.9160311 -3.590505 -5.594043 17.61639 -11.63413 -0 8.564068 -0 2.28778 -22.38669 14.19086 -0.07995438 -0.8713376 4.068422 5.245619 8.458758 -9.842402 1.274109 18.76038 5.296907 2.583448 -29.36379 7.418068 5.015 -16.75742 11.70599 87.84305 33.51226 -24.13686 -0 0 9.266071 -6.454009 8.758149 4.928998 4.822382 -20.5652 -1.947288 -91.53016 24.50896 20.41732 0 0 -21.67703 5.636157 12.01913 8.224685
1.092161 102.0535 18.7011 0.4466823 -0.5185031 1.323947 2.009116 -33.46969 -0.827422 -0 7.56167 -0 -3.643519 2.627239 -4.587112 -5.666087 18.14615 -9.467976 -0 11.7812 -0 0.6389313 -21.70382 12.70593 -0.01665372 -0.7605104 3.833626 5.246354 8.479106 -10.04085 1.136861 18.62038 5.449113 2.743947 -28.83536 7.099999 5.057964 -16.34637 11.78781 87.92561 33.13702 -24.45398 -0 0 8.682603 -7.42642 9.206183 5.508132 4.952621 -20.92725 -2.160161 -90.69194 24.20867 19.35472 0 0 -22.59602 4.840325 11.53602 8.944004
1.028552 101.3842 25.48155 1.01893 -2.650764 1.767301 2.325912 -27.5505 -0.09854367 -0 5.448651 -0 -0.6190922 3.608404 -6.769183 -5.45003 17.53506 -6.77816 -0 20.71183 -0 -3.032921 -19.22476 11.74227 -0.09908689 -0.520646 3.366421 4.658483 9.296926 -10.26288 0.8434383 18.36544 6.198804 3.462241 -26.24526 6.495956 4.957729 -15.35111 11.75558 88.57519 31.92937 -24.96734 -0 0 7.172365 -11.77361 11.42034 7.497309 5.839577 -22.27252 -2.665104 -87.57454 21.88508 14.85624 0 0 -25.05235 4.629032 9.257457 8.763081
0.9080832 101.3849 32.82592 1.071668 -4.50089 1.912209 3.316508 -21.73064 1.743426 -0 6.76963 -0 1.426458 2.899259 -8.202866 -4.876846 15.82806 -5.7084 -0 30.26199 -0 -5.649923 -16.08599 12.30774 -0.6240824 -0.2955984 3.196946 3.599871 10.46631 -9.933512 0.8078108 18.78586 6.635648 3.754897 -22.9696 6.215134 4.495725 -14.85905 11.47595 89.18467 29.77796 -24.53514 -0 0 6.935434 -16.06224 12.99256 9.095112 6.432555 -22.94528 -3.224432 -85.15369 20.14057 11.0608 0 0 -25.91053 4.363488 7.045933 8.798876
0.7219723 102.2281 40.33616 0.6931161 -6.035537 1.592877 4.451601 -16.43985 3.777107 -0 9.893316 -0 2.437097 1.373675 -8.870851 -4.06942 13.27965 -5.410173 -0 40.61494 -0 -7.495836 -12.38113 13.43189 -1.617192 0.1010828 3.7281 2.013904 11.43437 -8.504865 1.235603 20.2893 6.244465 3.126164 -19.13577 6.331266 3.396071 -15.3402 11.00018 88.88602 26.27498 -21.53296 -0 0 9.57971 -19.37549 13.01663 10.07677 5.995411 -21.70241 -3.807307 -84.43827 20.42086 9.980304 0 0 -23.23316 2.804716 5.4835 10.53332
0.4839912 103.622 47.72381 0.4206456 -7.300153 0.9306684 4.988472 -12.16554 5.425029 -0 13.04172 -0 3.020706 -0.938353 -9.232204 -3.43099 10.02736 -5.333883 -0 47.79759 -0 -8.423392 -9.845451 14.77414 -2.155102 0.4758959 4.591062 0.9288675 11.2903 -6.825212 1.785342 21.60312 5.51226 2.408098 -17.20944 6.55288 2.262844 -16.39534 10.61227 87.57748 23.53088 -17.36481 -0 0 13.32486 -20.1641 11.63753 10.41561 5.237945 -19.46461 -3.804908 -85.89824 21.92747 12.09881 0 0 -18.84207 1.167505 5.239426 12.35727
0.2342887 105.0119 54.90713 0.7147894 -8.850235 0.1774674 4.667289 -7.647899 6.860868 -0 15.38659 -0 4.125098 -4.129979 -9.838526 -3.062825 5.643991 -4.937625 -0 50.32042 -0 -8.522412 -9.130398 16.61879 -2.305264 0.6776784 5.220515 0.3376707 10.81671 -5.643906 2.140997 22.33608 5.02593 2.044523 -16.41736 6.645341 1.491598 -17.26889 10.36462 86.42636 21.92069 -14.17803 -0 0 16.06352 -20.26841 10.41686 10.74545 4.80657 -17.8189 -3.597391 -87.57382 22.98944 14.39787 0 0 -15.51348 0.07930665 5.442053 13.49913
0.02499339 105.9951 61.97423 1.291177 -9.992001 -0.4503962 3.84141 -4.095428 7.690902 -0 16.17617 -0 5.433643 -6.717391 -10.3884 -2.882879 1.598506 -4.304999 -0 47.01168 -0 -8.144239 -10.05141 18.07371 -2.295686 0.7362384 5.719538 -0.01052782 10.45683 -4.970022 2.387765 22.63941 4.662979 1.760203 -15.67557 6.66061 1.252733 -17.76548 10.32981 85.46635 21.18635 -12.2024 -0 0 17.89142 -20.48688 10.03192 11.07622 4.523814 -16.87158 -3.594423 -88.56556 23.44409 15.91244 0 0 -14.00503 -0.898939 5.731579 14.53779
-0.07664047 106.467 69.00947 1.748149 -10.40575 -0.9098672 2.989818 -1.712543 8.087562 -0 16.77635 -0 6.511969 -8.4549 -10.68784 -2.744049 -1.745274 -3.768737 -0 40.89462 -0 -7.749404 -11.45055 18.79262 -2.143362 0.7635967 6.418989 -0.4015623 10.0322 -4.281873 2.723383 22.77647 4.250332 1.337112 -14.3632 6.759104 1.459487 -18.10118 10.52877 83.941 20.79916 -10.02815 -0 0 20.00754 -21.169 10.43954 11.53362 4.163601 -15.9117 -3.844641 -89.36085 23.56679 17.46049 0 0 -13.31917 -2.399215 6.283248 16.0607
-0.01333323 106.5361 75.99676 1.972837 -10.30455 -1.228275 2.323643 0.4412171 8.238292 -0 18.3067 -0 7.01543 -9.590863 -10.54785 -2.557861 -5.105743 -3.475668 -0 35.10569 -0 -7.362115 -12.43835 19.12167 -1.773458 0.8816196 7.167686 -0.8496551 9.361812 -3.373975 3.140526 22.877 4.090308 0.9167772 -12.92629 7.251798 1.964613 -18.18714 10.88614 81.81971 20.71901 -7.276963 -0 0 22.20616 -22.52141 11.70958 12.11699 3.823403 -14.73572 -4.154894 -90.25462 23.38324 19.25376 0 0 -12.68249 -4.05457 7.367721 17.45795
0.2259425 106.39 82.92274 2.024511 -9.860242 -1.421732 1.848002 2.400293 8.149592 -0 20.58122 -0 6.996833 -9.907611 -10.07864 -2.411555 -8.120788 -3.401061 -0 30.49469 -0 -6.948574 -12.93255 19.22909 -1.346137 1.073517 7.619889 -1.191431 8.659376 -2.540015 3.45831 22.9823 4.347486 0.7010272 -12.15469 8.03884 2.40323 -18.00013 11.15947 80.04139 20.87204 -4.95644 -0 0 23.57364 -24.08811 13.31419 12.62488 3.670259 -13.73257 -4.28683 -91.05035 23.09932 20.72001 0 0 -11.91893 -5.09219 8.581755 18.05494
0.5859227 106.1809 89.79183 1.997631 -9.316666 -1.507443 1.549083 3.547319 7.78105 -0 22.62115 -0 6.545039 -9.318654 -9.590329 -2.450438 -9.811976 -3.51281 -0 27.43708 -0 -6.533735 -13.21354 19.20841 -1.178476 1.16046 7.740605 -1.316348 8.40133 -2.235433 3.553295 23.01391 4.591734 0.6553745 -12.03153 8.472527 2.567406 -17.87102 11.24064 79.43489 21.05319 -4.197421 -0 0 23.91594 -24.91343 14.19229 12.85344 3.643611 -13.39622 -4.313713 -91.30132 22.97283 21.22916 0 0 -11.66668 -5.357721 9.076665 18.1426
1.01584 105.9601 96.61057 1.962058 -8.917597 -1.510263 1.370607 4.166771 7.351736 -0 24.07106 -0 5.956701 -8.506616 -9.196806 -2.566169 -10.58611 -3.701226 -0 25.64083 -0 -6.192306 -13.38189 19.20456 -1.268942 1.105155 7.710019 -1.279964 8.59016 -2.40199 3.483292 22.93992 4.601446 0.6791576 -12.17158 8.389515 2.553336 -17.9551 11.22304 79.70448 21.14651 -4.660649 -0 0 23.72901 -24.8886 14.16436 12.84718 3.642341 -13.61071 -4.344073 -91.08226 22.97242 21.01431 0 0 -12.0143 -5.208739 8.814952 18.12844
1.505327 105.7583 103.3989 1.948241 -8.647267 -1.451435 1.236802 4.720254 7.109622 -0 25.35935 -0 5.553478 -7.942825 -8.881762 -2.63777 -11.22209 -3.850982 -0 24.56576 -0 -5.916304 -13.36942 19.20086 -1.43123 1.008364 7.626389 -1.184535 8.905813 -2.713564 3.362075 22.83704 4.522743 0.731465 -12.38816 8.121368 2.481243 -18.09707 11.17758 80.23859 21.18638 -5.478662 -0 0 23.37419 -24.53162 13.78284 12.7504 3.656089 -13.98984 -4.361645 -90.73929 23.00218 20.57776 0 0 -12.50105 -4.926143 8.325675 18.05882
2.05678 105.5988 110.1768 1.958708 -8.432982 -1.3437 1.119253 5.25693 7.057255 -0 26.63875 -0 5.378715 -7.612905 -8.637302 -2.665333 -11.87714 -3.936795 -0 23.89312 -0 -5.680426 -13.22225 19.15971 -1.583118 0.9224172 7.514072 -1.078614 9.203046 -3.025457 3.241088 22.74827 4.455511 0.7939621 -12.62183 7.863424 2.404296 -18.19436 11.12613 80.79486 21.23371 -6.312168 -0 0 22.95116 -24.14206 13.39103 12.62996 3.685562 -14.37294 -4.36268 -90.39668 23.02991 20.1001 0 0 -12.94929 -4.609616 7.873107 17.92689
2.666647 105.484 116.9533 1.981494 -8.261011 -1.199553 1.025102 5.71627 7.077108 -0 27.72258 -0 5.318751 -7.406805 -8.447464 -2.675184 -12.4472 -3.987409 -0 23.47749 -0 -5.499155 -13.04538 19.10375 -1.713803 0.8501194 7.391438 -0.9744309 9.468459 -3.314722 3.125901 22.66875 4.419873 0.8628758 -12.8653 7.647827 2.338205 -18.2527 11.07742 81.31813 21.30384 -7.098807 -0 0 22.50507 -23.80101 13.06576 12.51398 3.725339 -14.73458 -4.352964 -90.07554 23.04226 19.63804 0 0 -13.35215 -4.286588 7.482795 17.75452
3.327624 105.406 123.7308 2.008536 -8.130423 -1.030654 0.9571532 6.080782 7.107423 -0 28.52345 -0 5.299065 -7.273606 -8.301278 -2.677874 -12.89132 -4.020823 -0 23.22707 -0 -5.374066 -12.89169 19.05569 -1.817496 0.7911125 7.280618 -0.8819121 9.691098 -3.560932 3.022518 22.59597 4.411728 0.9326785 -13.09985 7.47832 2.288407 -18.29253 11.03806 81.75843 21.38347 -7.768813 -0 0 22.10156 -23.53481 12.81646 12.42127 3.767573 -15.04667 -4.335155 -89.80801 23.03565 19.25299 0 0 -13.68391 -3.99092 7.161979 17.5752
